# xmcd
#
# Track frame offsets:
#	150
#	21472
#	47065
#	71782
#	92997
#	113285
#	132630
#	158620
#	180492
#	203960
#	232785
#	253590
#	278410
#
# Disc length: 3827 seconds
#
# Revision: 1
# Processed by: cddbd v1.5.1PL0 Copyright (c) Steve Scherf et al.
# Submitted via: CDex 1.50Beta5
#
DISCID=ac0ef10d
DTITLE=BO GUMBOS - BO GUMBOS LIVE at 磔磔 1988
DYEAR=2000
DGENRE=Rock
TTITLE0=BO&GUMBO DISCO
TTITLE1=泥んこ道を二人
TTITLE2=どうしようかな
TTITLE3=君の家は変な家だなあ
TTITLE4=誰もいない
TTITLE5=メリーゴーランド
TTITLE6=魚ごっこ
TTITLE7=SLEEPIN’
TTITLE8=もしもし!OK!!
TTITLE9=ダイナマイトに火をつけろ
TTITLE10=助けて!フラワーマン
TTITLE11=見返り不美人
TTITLE12=BO GUMBO RAP
EXTD=
EXTT0=
EXTT1=
EXTT2=
EXTT3=
EXTT4=
EXTT5=
EXTT6=
EXTT7=
EXTT8=
EXTT9=
EXTT10=
EXTT11=
EXTT12=
PLAYORDER=
